<svg width="10" height="14" viewBox="0 0 10 14" fill="none" xmlns="http://www.w3.org/2000/svg">
<path fill-rule="evenodd" clip-rule="evenodd" d="M7.51341 10.3059C7.67829 9.70298 7.35824 8.46352 7.35824 8.46352C7.35824 8.46352 7.12611 9.47324 6.76339 9.84644C6.45395 10.1648 6.07483 10.3856 5.53112 10.4436C5.97566 10.2277 6.28137 9.77745 6.28137 9.25706C6.28137 8.52657 5.67896 7.93438 4.93585 7.93438C4.19274 7.93438 3.59031 8.52657 3.59031 9.25706C3.59031 9.45656 3.63527 9.64577 3.71573 9.8154C3.25094 9.44512 3.17786 8.85147 3.17786 8.85147C3.17786 8.85147 2.65885 11.0062 4.08893 12.0199C5.51898 13.0335 8.3204 12.1622 8.3204 12.1622C8.3204 12.1622 4.31139 14.983 1.34068 11.9129C-1.21835 9.26824 0.672766 5.78648 0.672766 5.78648C0.672766 5.78648 0.591094 6.10947 0.591094 6.48441C0.591094 6.85936 0.794382 7.14464 0.794382 7.14464C0.794382 7.14464 1.40078 5.86644 1.87271 5.34663C2.31936 4.85468 2.87926 4.45568 3.36286 4.11105C3.73512 3.84576 4.06219 3.61269 4.25752 3.39424C5.33339 2.19124 4.67372 0 4.67372 0C4.67372 0 5.88652 1.06918 6.2251 2.45004C6.35417 2.9764 6.27113 3.57529 6.1969 4.11084C6.07637 4.98026 5.97897 5.68279 6.84966 5.6372C8.2567 5.56352 7.03402 3.39424 7.03402 3.39424C7.03402 3.39424 10.2257 5.07178 9.98727 8.00569C9.74881 10.9396 6.4986 11.6066 6.4986 11.6066C6.4986 11.6066 7.34849 10.9088 7.51341 10.3059Z" fill="#FF9D55"/>
</svg>
