<svg width="16" height="14" viewBox="0 0 16 14" fill="none" xmlns="http://www.w3.org/2000/svg">
<path d="M13.9552 1.87071C13.6061 1.52143 13.1916 1.24435 12.7353 1.05531C12.2791 0.866274 11.7901 0.768975 11.2963 0.768975C10.8024 0.768975 10.3134 0.866274 9.85719 1.05531C9.40096 1.24435 8.98644 1.52143 8.63733 1.87071L7.91278 2.59526L7.18823 1.87071C6.48304 1.16552 5.52659 0.76934 4.52929 0.76934C3.53199 0.76934 2.57554 1.16552 1.87035 1.87071C1.16515 2.57591 0.768975 3.53236 0.768975 4.52966C0.768975 5.52695 1.16515 6.4834 1.87035 7.1886L2.59489 7.91314L7.91278 13.231L13.2307 7.91314L13.9552 7.1886C14.3045 6.83948 14.5816 6.42497 14.7706 5.96874C14.9596 5.51251 15.0569 5.0235 15.0569 4.52966C15.0569 4.03581 14.9596 3.54681 14.7706 3.09058C14.5816 2.63434 14.3045 2.21983 13.9552 1.87071V1.87071Z" stroke="white" stroke-width="1.5" stroke-linecap="round" stroke-linejoin="round"/>
</svg>
