<svg width="14" height="12" viewBox="0 0 14 12" fill="none" xmlns="http://www.w3.org/2000/svg">
<path fill-rule="evenodd" clip-rule="evenodd" d="M4.83296 12C6.86129 12 8.5978 10.8727 9.31469 9.27467C9.32345 9.25517 6.4365 10.0249 6.52855 9.75282C6.56966 9.63131 8.33937 8.98482 9.62872 8.23074C10.3698 7.79732 10.711 6.87982 10.711 6.87982C10.711 6.87982 9.46254 7.48599 8.83137 7.63976C7.55947 7.94968 6.43985 7.91631 6.43985 7.88402C6.43985 7.81419 8.29894 7.46095 10.8829 5.88636C12.0983 5.14572 12.4284 3.86998 12.4284 3.86998C12.4284 3.86998 11.0922 4.66592 10.2844 4.9287C8.36874 5.55186 6.62061 5.73965 6.62061 5.65532C6.62061 5.47478 8.15902 5.05174 9.79011 4.2614C10.6382 3.85048 11.3727 3.31362 12.2238 2.71658C13.6165 1.73975 13.8461 0 13.8461 0C13.8461 0 12.4726 0.885941 11.8022 1.18015C9.03628 2.39417 6.59394 3.03099 4.83296 3.16885C2.17472 3.37698 0 5.23169 0 7.63976C0 10.0479 2.16379 12 4.83296 12Z" fill="#89AAE3"/>
</svg>
