<svg width="16" height="14" viewBox="0 0 16 14" fill="none" xmlns="http://www.w3.org/2000/svg">
<path d="M13.9552 1.87071C13.6061 1.52143 13.1916 1.24435 12.7353 1.05531C12.2791 0.866273 11.7901 0.768974 11.2963 0.768974C10.8024 0.768974 10.3134 0.866273 9.85718 1.05531C9.40095 1.24435 8.98643 1.52143 8.63732 1.87071L7.91277 2.59525L7.18823 1.87071C6.48303 1.16551 5.52658 0.76934 4.52929 0.76934C3.53199 0.76934 2.57554 1.16551 1.87034 1.87071C1.16515 2.5759 0.768974 3.53235 0.768974 4.52965C0.768974 5.52695 1.16515 6.4834 1.87034 7.18859L2.59489 7.91314L7.91277 13.231L13.2307 7.91314L13.9552 7.18859C14.3045 6.83947 14.5816 6.42496 14.7706 5.96873C14.9596 5.5125 15.0569 5.02349 15.0569 4.52965C15.0569 4.03581 14.9596 3.5468 14.7706 3.09057C14.5816 2.63434 14.3045 2.21983 13.9552 1.87071V1.87071Z" stroke="white" stroke-width="1.5" stroke-linecap="round" stroke-linejoin="round"/>
</svg>
