<svg width="14" height="14" viewBox="0 0 14 14" fill="none" xmlns="http://www.w3.org/2000/svg">
<path fill-rule="evenodd" clip-rule="evenodd" d="M11.6982 10.7584C13.112 9.62796 14 7.99466 14 6.17832C14 2.76612 10.866 0 7 0C3.13401 0 0 2.76612 0 6.17832C0 7.92909 0.825062 9.50978 2.15073 10.634C2.07039 10.9114 2.02632 11.2132 2.02632 11.5287C2.02632 12.8935 2.85105 14 3.86843 14C4.52949 14 5.10924 13.5328 5.43422 12.8312C5.7592 13.5328 6.33894 14 7 14C7.60261 14 8.13761 13.6118 8.4737 13.0117C8.80978 13.6118 9.34479 14 9.94736 14C10.9647 14 11.7895 12.8935 11.7895 11.5287C11.7895 11.2597 11.7574 11.0008 11.6982 10.7584ZM11.0527 6.30085C11.0527 8.03319 9.19697 9.43754 6.90791 9.43754C4.61883 9.43754 2.76317 8.03319 2.76317 6.30085C2.76317 4.56851 4.61883 3.16417 6.90791 3.16417C9.19697 3.16417 11.0527 4.56851 11.0527 6.30085Z" fill="#B567CE"/>
</svg>
