<svg width="9" height="14" viewBox="0 0 9 14" fill="none" xmlns="http://www.w3.org/2000/svg">
<path fill-rule="evenodd" clip-rule="evenodd" d="M9 9.38861C9 11.8646 6.98529 13.8717 4.5 13.8717C2.01471 13.8717 0 11.8646 0 9.38861C0 6.98057 4.25658 0.367072 4.49003 0.00617237C4.49537 -0.00205751 4.50466 -0.00205744 4.50997 0.00617245C4.74342 0.367072 9 6.98057 9 9.38861ZM3.74986 12.4345C1.46635 11.9348 1.8571 9.40528 1.8571 9.40528C1.8571 9.40528 2.48065 10.9323 3.99385 11.4269C5.50702 11.9215 7.33567 11.1961 7.33567 11.1961C7.33567 11.1961 6.03338 12.9341 3.74986 12.4345Z" fill="#5090D6"/>
</svg>
