<svg width="61" height="94" viewBox="0 0 61 94" fill="none" xmlns="http://www.w3.org/2000/svg">
<path fill-rule="evenodd" clip-rule="evenodd" d="M60.9874 63.6208C60.9874 80.3988 47.335 94 30.4937 94C13.6525 94 0 80.3988 0 63.6208C0 47.303 28.8442 2.48742 30.4262 0.0418264C30.4623 -0.0139425 30.5253 -0.013942 30.5613 0.0418269C32.1432 2.48742 60.9874 47.303 60.9874 63.6208ZM25.4105 84.2606C9.93654 80.8748 12.5844 63.7338 12.5844 63.7338C12.5844 63.7338 16.8099 74.0812 27.0639 77.433C37.3177 80.7847 49.7093 75.8689 49.7093 75.8689C49.7093 75.8689 40.8845 87.6463 25.4105 84.2606Z" fill="url(#paint0_linear_0_112)"/>
<defs>
<linearGradient id="paint0_linear_0_112" x1="-6.10418" y1="7.04886" x2="71.637" y2="86.0367" gradientUnits="userSpaceOnUse">
<stop stop-color="white"/>
<stop offset="1" stop-color="white" stop-opacity="0"/>
</linearGradient>
</defs>
</svg>
