<svg width="12" height="13" viewBox="0 0 12 13" fill="none" xmlns="http://www.w3.org/2000/svg">
<path fill-rule="evenodd" clip-rule="evenodd" d="M1.92622 11.3165C1.87999 11.273 1.83427 11.2287 1.78908 11.1835C-0.596361 8.79805 -0.596361 4.93047 1.78908 2.54504C4.17452 0.159584 11.7755 0 11.7755 0C11.7755 0 12.813 8.79805 10.4276 11.1835C8.30896 13.3021 5.02132 13.5391 2.64118 11.8945L4.55902 9.541L7.62485 8.87909L5.12223 8.62891L6.71267 7.00953L8.52308 6.61293L7.09152 6.18897L8.52308 3.60647L6.48682 5.89046L5.70049 4.78085L5.97729 6.61293L4.55902 8.21179L3.90158 6.18895V8.87909L1.92622 11.3165Z" fill="#63BC5A"/>
</svg>
