<svg width="84" height="91" viewBox="0 0 84 91" fill="none" xmlns="http://www.w3.org/2000/svg">
<path fill-rule="evenodd" clip-rule="evenodd" d="M13.4835 79.2153C13.1599 78.9109 12.8399 78.6007 12.5236 78.2843C-4.17453 61.5863 -4.17453 34.5133 12.5236 17.8153C29.2216 1.11709 82.4282 0 82.4282 0C82.4282 0 89.6909 61.5863 72.9928 78.2843C58.1627 93.1145 35.1493 94.7735 18.4883 83.2617L31.9131 66.787L53.3739 62.1536L35.8556 60.4023L46.9887 49.0667L59.6615 46.2905L49.6406 43.3228L59.6615 25.2453L45.4077 41.2332L39.9034 33.4659L41.8411 46.2905L31.9131 57.4825L27.311 43.3226V62.1536L13.4835 79.2153Z" fill="url(#paint0_linear_0_289)"/>
<defs>
<linearGradient id="paint0_linear_0_289" x1="-8.40748" y1="6.80949" x2="61.8247" y2="108.549" gradientUnits="userSpaceOnUse">
<stop stop-color="white"/>
<stop offset="1" stop-color="white" stop-opacity="0"/>
</linearGradient>
</defs>
</svg>
