<svg width="71" height="94" viewBox="0 0 71 94" fill="none" xmlns="http://www.w3.org/2000/svg">
<path fill-rule="evenodd" clip-rule="evenodd" d="M52.9224 72.5919C54.0838 68.3452 51.8295 59.6147 51.8295 59.6147C51.8295 59.6147 50.1944 66.727 47.6395 69.3557C45.4599 71.5979 42.7895 73.1531 38.9597 73.5618C42.0909 72.0409 44.2443 68.8697 44.2443 65.2042C44.2443 60.0588 40.0011 55.8876 34.7668 55.8876C29.5326 55.8876 25.2891 60.0588 25.2891 65.2042C25.2891 66.6095 25.6058 67.9422 26.1726 69.137C22.8988 66.5289 22.384 62.3473 22.384 62.3473C22.384 62.3473 18.7282 77.525 28.8013 84.6646C38.8742 91.8042 58.6066 85.6674 58.6066 85.6674C58.6066 85.6674 30.3683 105.536 9.44335 83.9115C-8.58174 65.283 4.73878 40.7584 4.73878 40.7584C4.73878 40.7584 4.16351 43.0335 4.16351 45.6745C4.16351 48.3155 5.59541 50.3249 5.59541 50.3249C5.59541 50.3249 9.86672 41.3216 13.1909 37.6602C16.3369 34.1951 20.2807 31.3846 23.6871 28.9571C26.3092 27.0885 28.6129 25.4468 29.9888 23.9081C37.567 15.4345 32.9204 0 32.9204 0C32.9204 0 41.463 7.53102 43.8479 17.2574C44.7571 20.9649 44.1721 25.1834 43.6493 28.9557C42.8003 35.0796 42.1142 40.028 48.2472 39.7069C58.1579 39.1879 49.5457 23.9081 49.5457 23.9081C49.5457 23.9081 72.0272 35.7242 70.3477 56.3899C68.668 77.0556 45.7744 81.7538 45.7744 81.7538C45.7744 81.7538 51.7608 76.8386 52.9224 72.5919Z" fill="url(#paint0_linear_0_197)"/>
<defs>
<linearGradient id="paint0_linear_0_197" x1="-7.05" y1="7.04885" x2="69.7167" y2="97.1322" gradientUnits="userSpaceOnUse">
<stop stop-color="white"/>
<stop offset="1" stop-color="white" stop-opacity="0"/>
</linearGradient>
</defs>
</svg>
