<svg width="61" height="94" viewBox="0 0 61 94" fill="none" xmlns="http://www.w3.org/2000/svg">
<path fill-rule="evenodd" clip-rule="evenodd" d="M60.9875 63.6209C60.9875 80.3988 47.335 94.0001 30.4937 94.0001C13.6525 94.0001 0 80.3988 0 63.6209C0 47.3031 28.8443 2.48742 30.4262 0.0418264C30.4623 -0.0139425 30.5253 -0.013942 30.5613 0.0418269C32.1432 2.48742 60.9875 47.3031 60.9875 63.6209ZM25.4105 84.2607C9.93655 80.8749 12.5845 63.7338 12.5845 63.7338C12.5845 63.7338 16.8099 74.0812 27.0639 77.4331C37.3177 80.7847 49.7094 75.869 49.7094 75.869C49.7094 75.869 40.8845 87.6463 25.4105 84.2607Z" fill="url(#paint0_linear_0_91)"/>
<defs>
<linearGradient id="paint0_linear_0_91" x1="-6.10418" y1="7.04886" x2="71.637" y2="86.0368" gradientUnits="userSpaceOnUse">
<stop stop-color="white"/>
<stop offset="1" stop-color="white" stop-opacity="0"/>
</linearGradient>
</defs>
</svg>
